<svg width="16" height="16" viewBox="0 0 16 16" fill="none" xmlns="http://www.w3.org/2000/svg">
<path d="M3.5 4.625L4.16 3.85719C4.7196 3.26943 5.39295 2.80167 6.13906 2.4824C6.88517 2.16312 7.68845 1.99899 8.5 2C11.8125 2 14.5 4.6875 14.5 8C14.5 11.3125 11.8125 14 8.5 14C7.25906 13.9999 6.04864 13.6152 5.03533 12.8989C4.02201 12.1826 3.2556 11.1698 2.84156 10" stroke="white" stroke-miterlimit="10" stroke-linecap="round"/>
<path d="M1.5 3.04437V6.5C1.5 6.63261 1.55268 6.75978 1.64644 6.85355C1.74021 6.94732 1.86739 7 2 7H5.45562C5.90125 7 6.12437 6.46156 5.80937 6.14656L2.35344 2.69062C2.03844 2.375 1.5 2.59875 1.5 3.04437Z" fill="white"/>
</svg>
